<?xml version="1.0" encoding="UTF-8"?>
<svg width="3200px" height="1720px" viewBox="0 0 3200 1720" version="1.1" xmlns="http://www.w3.org/2000/svg" xmlns:xlink="http://www.w3.org/1999/xlink">
    <!-- Generator: Sketch 41.2 (35397) - http://www.bohemiancoding.com/sketch -->
    <title>Artboard</title>
    <desc>Created with Sketch.</desc>
    <defs>
        <linearGradient x1="0%" y1="22.2255026%" x2="78.7524207%" y2="86.1617224%" id="linearGradient-1">
            <stop stop-color="#8FFFDE" offset="0%"></stop>
            <stop stop-color="#55BDFF" offset="100%"></stop>
        </linearGradient>
        <linearGradient x1="50%" y1="61.2902847%" x2="50%" y2="97.5845026%" id="linearGradient-2">
            <stop stop-color="#8CB3FF" offset="0%"></stop>
            <stop stop-color="#FF85DE" offset="100%"></stop>
        </linearGradient>
        <linearGradient x1="50%" y1="0%" x2="50%" y2="97.5845026%" id="linearGradient-3">
            <stop stop-color="#28CAFF" offset="0%"></stop>
            <stop stop-color="#4678FF" offset="100%"></stop>
        </linearGradient>
        <linearGradient x1="0%" y1="0%" x2="100%" y2="100%" id="linearGradient-4">
            <stop stop-color="#28FFF1" offset="0%"></stop>
            <stop stop-color="#8DACFF" offset="100%"></stop>
        </linearGradient>
        <linearGradient x1="4.23509247%" y1="4.23509247%" x2="97.1256786%" y2="97.1256786%" id="linearGradient-5">
            <stop stop-color="#2897FF" offset="0%"></stop>
            <stop stop-color="#D485FF" offset="100%"></stop>
        </linearGradient>
        <linearGradient x1="50%" y1="0%" x2="50%" y2="98.1385523%" id="linearGradient-6">
            <stop stop-color="#3C43FF" offset="0%"></stop>
            <stop stop-color="#385BFF" offset="100%"></stop>
        </linearGradient>
        <linearGradient x1="50%" y1="0%" x2="50%" y2="98.4175702%" id="linearGradient-7">
            <stop stop-color="#3C78FF" offset="0%"></stop>
            <stop stop-color="#0059E3" stop-opacity="0" offset="100%"></stop>
        </linearGradient>
        <linearGradient x1="50%" y1="1.85347577%" x2="50%" y2="100%" id="linearGradient-8">
            <stop stop-color="#BDC1FF" stop-opacity="0.447718524" offset="0%"></stop>
            <stop stop-color="#0003E3" offset="100%"></stop>
        </linearGradient>
        <linearGradient x1="50%" y1="0%" x2="50%" y2="100%" id="linearGradient-9">
            <stop stop-color="#6F76FF" offset="0%"></stop>
            <stop stop-color="#0003E3" stop-opacity="0" offset="100%"></stop>
        </linearGradient>
        <linearGradient x1="50%" y1="0%" x2="50%" y2="120.562329%" id="linearGradient-10">
            <stop stop-color="#6FD1FF" stop-opacity="0.256595335" offset="0%"></stop>
            <stop stop-color="#0003E3" offset="100%"></stop>
        </linearGradient>
        <linearGradient x1="50%" y1="0%" x2="50%" y2="100%" id="linearGradient-11">
            <stop stop-color="#849EFF" stop-opacity="0.451171875" offset="0%"></stop>
            <stop stop-color="#0003E3" offset="100%"></stop>
        </linearGradient>
        <linearGradient x1="50%" y1="0%" x2="50%" y2="94.4637319%" id="linearGradient-12">
            <stop stop-color="#6661FF" offset="0%"></stop>
            <stop stop-color="#0098E3" stop-opacity="0" offset="100%"></stop>
        </linearGradient>
    </defs>
    <g id="Page-1" stroke="none" stroke-width="1" fill="none" fill-rule="evenodd">
        <g id="Artboard">
            <path d="M2296.89702,235.399212 L2287.64555,240.262996 C2285.20457,241.546294 2283.60543,240.373035 2284.06987,237.665113 L2285.83675,227.363453 L2278.35215,220.067778 C2276.37736,218.14283 2276.99903,216.259395 2279.71794,215.864314 L2290.0614,214.361322 L2294.68713,204.988563 C2295.90762,202.515582 2297.89098,202.524814 2299.10691,204.988563 L2303.73264,214.361322 L2314.0761,215.864314 C2316.8052,216.260875 2317.40931,218.150016 2315.44189,220.067778 L2307.95729,227.363453 L2309.72417,237.665113 C2310.19035,240.383182 2308.58035,241.541503 2306.14849,240.262996 L2296.89702,235.399212 Z" id="Star" stroke="url(#linearGradient-1)" stroke-width="4" transform="translate(2296.897120, 221.908993) rotate(19.000000) translate(-2296.897120, -221.908993) "></path>
            <path d="M709.608101,416.446073 C731.699491,416.446073 749.608101,398.537463 749.608101,376.446073 C749.608101,354.354683 731.699491,336.446073 709.608101,336.446073 C687.516711,336.446073 669.608101,354.354683 669.608101,376.446073 C669.608101,398.537463 687.516711,416.446073 709.608101,416.446073 Z M709.608101,409.141352 C727.665205,409.141352 742.30338,394.503177 742.30338,376.446073 C742.30338,358.388969 727.665205,343.750793 709.608101,343.750793 C691.550996,343.750793 676.912821,358.388969 676.912821,376.446073 C676.912821,394.503177 691.550996,409.141352 709.608101,409.141352 Z" id="Combined-Shape" fill="url(#linearGradient-2)"></path>
            <circle id="Combined-Shape" fill="url(#linearGradient-3)" cx="527.094821" cy="61.885962" r="10"></circle>
            <circle id="Combined-Shape" fill="url(#linearGradient-4)" cx="2118.92203" cy="78.396814" r="10"></circle>
            <circle id="Combined-Shape" fill="url(#linearGradient-5)" cx="2589.55141" cy="51.885962" r="7.5"></circle>
            <ellipse id="Oval-2" fill-opacity="0.7" fill="url(#linearGradient-6)" cx="456.5" cy="800.946073" rx="441.5" ry="384.5"></ellipse>
            <ellipse id="Oval-2" fill-opacity="0.7" fill="url(#linearGradient-7)" cx="982.821059" cy="889.42967" rx="360.957322" ry="314.35581"></ellipse>
            <ellipse id="Oval-2" fill-opacity="0.7" fill="url(#linearGradient-8)" cx="1817.71854" cy="860" rx="389.17124" ry="314.35581"></ellipse>
            <ellipse id="Oval-2" fill-opacity="0.7" fill="url(#linearGradient-9)" cx="1246.23661" cy="1203.78548" rx="536.628513" ry="508.957907"></ellipse>
            <ellipse id="Oval-2" fill-opacity="0.7" fill="url(#linearGradient-10)" cx="1500.09354" cy="943.848871" rx="390.358798" ry="356.102364"></ellipse>
            <ellipse id="Oval-2" fill-opacity="0.7" fill="url(#linearGradient-11)" cx="2664.46101" cy="931.654824" rx="535.538985" ry="502.688979"></ellipse>
            <ellipse id="Oval-2" fill-opacity="0.7" fill="url(#linearGradient-12)" cx="2178.79398" cy="1237.05117" rx="724.013648" ry="732.121501"></ellipse>
        </g>
    </g>
</svg>