<?xml version="1.0" encoding="UTF-8"?>
<svg width="400px" height="300px" viewBox="0 0 400 300" version="1.1" xmlns="http://www.w3.org/2000/svg" xmlns:xlink="http://www.w3.org/1999/xlink">
    <!-- Generator: Sketch 41.2 (35397) - http://www.bohemiancoding.com/sketch -->
    <title>Artboard</title>
    <desc>Created with Sketch.</desc>
    <defs>
        <linearGradient x1="50%" y1="0%" x2="50%" y2="100%" id="linearGradient-1">
            <stop stop-color="#FFA9A9" offset="0%"></stop>
            <stop stop-color="#FF7070" offset="100%"></stop>
        </linearGradient>
    </defs>
    <g id="Page-1" stroke="none" stroke-width="1" fill="none" fill-rule="evenodd">
        <g id="Artboard">
            <polyline id="Path-2" stroke="#E089D9" stroke-width="7" points="198.189459 142.632228 212.150013 98.1238289 249.146667 107.012019"></polyline>
            <circle id="Oval-2" stroke="#E089D8" stroke-width="7" cx="265.776678" cy="109.658131" r="14"></circle>
            <ellipse id="Oval" stroke="url(#linearGradient-1)" stroke-width="7" cx="197.613891" cy="200.14275" rx="75.9306232" ry="57.36938"></ellipse>
            <path d="M253.215396,161.318455 C239.330768,149.83554 219.349744,142.632228 197.141966,142.632228 C175.644272,142.632228 156.233209,149.382259 142.418972,160.230194 C139.342415,156.720279 135.037331,154.539439 130.272509,154.539439 C120.922218,154.539439 113.34231,162.937534 113.34231,173.29711 C113.34231,180.501027 117.007677,186.756443 122.384876,189.898959 C121.613704,193.178606 121.211343,196.554605 121.211343,200.001608 C121.211343,231.685842 155.206641,257.370988 197.141966,257.370988 C239.077291,257.370988 273.072589,231.685842 273.072589,200.001608 C273.072589,196.902172 272.747279,193.860143 272.121049,190.893949 C278.574574,188.247375 283.174608,181.367426 283.174608,173.29711 C283.174608,162.937534 275.5947,154.539439 266.24441,154.539439 C261.004678,154.539439 256.320896,157.176673 253.215396,161.318455 Z" id="Combined-Shape" stroke="url(#linearGradient-1)" stroke-width="7"></path>
            <ellipse id="Oval-2" fill="#ffa18f" cx="166.622944" cy="191.491971" rx="12.4104177" ry="12.3710251"></ellipse>
            <ellipse id="Oval-2" fill="#ffa18f" cx="228.604839" cy="191.491971" rx="12.4104177" ry="12.3710251"></ellipse>
            <path d="M166.622944,224.117283 C166.622944,224.117283 180.49281,235.260212 198.478894,235.260212 C216.464978,235.260212 228.604839,224.72072 228.604839,224.72072" id="Path-3" stroke="#aed4e4" stroke-width="7" stroke-linecap="round"></path>
            <path d="M63.5,117.002396 L57.1351854,119.822945 C55.6186906,120.494975 54.5274854,119.702936 54.6980753,118.052281 L55.413741,111.127385 L50.7644036,105.945684 C49.6566421,104.71108 50.0727153,103.428529 51.6952968,103.080689 L58.5024171,101.621417 L61.9937831,95.598401 C62.8256437,94.1633437 64.1739963,94.1627227 65.0062169,95.598401 L68.4975829,101.621417 L75.3047032,103.080689 C76.9265828,103.428379 77.3438373,104.710546 76.2355964,105.945684 L71.586259,111.127385 L72.3019247,118.052281 C72.4724408,119.702222 71.3819657,120.495266 69.8648146,119.822945 L63.5,117.002396 Z" id="Star" fill="#EABFFF"></path>
            <path d="M141.348482,60.1557056 L134.983668,62.9762547 C133.467173,63.648285 132.375968,62.8562457 132.546557,61.2055905 L133.262223,54.2806945 L128.612886,49.0989937 C127.505124,47.8643902 127.921197,46.5818388 129.543779,46.233999 L136.350899,44.774727 L139.842265,38.7517107 C140.674126,37.3166535 142.022478,37.3160324 142.854699,38.7517107 L146.346065,44.774727 L153.153185,46.233999 C154.775065,46.5816884 155.192319,47.8638559 154.084079,49.0989937 L149.434741,54.2806945 L150.150407,61.2055905 C150.320923,62.8555316 149.230448,63.6485758 147.713297,62.9762547 L141.348482,60.1557056 Z" id="Star" fill="#A8CDCC"></path>
            <path d="M358.684765,92.8793485 L355.595033,94.2485543 C354.077432,94.9210748 352.984773,94.1348241 353.156145,92.4765986 L353.503558,89.1149809 L351.246586,86.5995789 C350.138016,85.3640748 350.548135,84.0819294 352.178158,83.7324943 L355.482603,83.0241061 L357.17745,80.1002963 C358.009917,78.6641923 359.356043,78.6580337 360.192081,80.1002963 L361.886928,83.0241061 L365.191372,83.7324943 C366.814435,84.0804373 367.236268,85.3587764 366.122945,86.5995789 L363.865973,89.1149809 L364.213385,92.4765986 C364.384026,94.1277432 363.298607,94.9239589 361.774497,94.2485543 L358.684765,92.8793485 Z" id="Star" fill="#FF9C65"></path>
            <circle id="Oval-4" fill="#FC7D5E" cx="56" cy="32" r="5"></circle>
            <circle id="Oval-4" fill="#BF99FF" cx="48" cy="179.120946" r="5"></circle>
            <circle id="Oval-4" fill="#FFD578" cx="309.588436" cy="38" r="7"></circle>
            <path d="M218.203175,24 C219.860029,24 221.203175,22.6568542 221.203175,21 C221.203175,19.3431458 219.860029,18 218.203175,18 C216.546321,18 215.203175,19.3431458 215.203175,21 C215.203175,22.6568542 216.546321,24 218.203175,24 Z M234.203175,40 C235.860029,40 237.203175,38.6568542 237.203175,37 C237.203175,35.3431458 235.860029,34 234.203175,34 C232.546321,34 231.203175,35.3431458 231.203175,37 C231.203175,38.6568542 232.546321,40 234.203175,40 Z M218.203175,56 C219.860029,56 221.203175,54.6568542 221.203175,53 C221.203175,51.3431458 219.860029,50 218.203175,50 C216.546321,50 215.203175,51.3431458 215.203175,53 C215.203175,54.6568542 216.546321,56 218.203175,56 Z M202.203175,40 C203.860029,40 205.203175,38.6568542 205.203175,37 C205.203175,35.3431458 203.860029,34 202.203175,34 C200.546321,34 199.203175,35.3431458 199.203175,37 C199.203175,38.6568542 200.546321,40 202.203175,40 Z M227.395563,27.8076118 C228.567136,28.9791847 230.466631,28.9791847 231.638204,27.8076118 C232.809777,26.636039 232.809777,24.736544 231.638204,23.5649712 C230.466631,22.3933983 228.567136,22.3933983 227.395563,23.5649712 C226.22399,24.736544 226.22399,26.636039 227.395563,27.8076118 Z M227.395563,50.4350288 C228.567136,51.6066017 230.466631,51.6066017 231.638204,50.4350288 C232.809777,49.263456 232.809777,47.363961 231.638204,46.1923882 C230.466631,45.0208153 228.567136,45.0208153 227.395563,46.1923882 C226.22399,47.363961 226.22399,49.263456 227.395563,50.4350288 Z M204.768146,50.4350288 C205.939719,51.6066017 207.839214,51.6066017 209.010787,50.4350288 C210.18236,49.263456 210.18236,47.363961 209.010787,46.1923882 C207.839214,45.0208153 205.939719,45.0208153 204.768146,46.1923882 C203.596573,47.363961 203.596573,49.263456 204.768146,50.4350288 Z M204.768146,27.8076118 C205.939719,28.9791847 207.839214,28.9791847 209.010787,27.8076118 C210.18236,26.636039 210.18236,24.736544 209.010787,23.5649712 C207.839214,22.3933983 205.939719,22.3933983 204.768146,23.5649712 C203.596573,24.736544 203.596573,26.636039 204.768146,27.8076118 Z" id="Combined-Shape" fill="#FFD578"></path>
            <circle id="Oval-4" stroke="#A8CDCC" stroke-width="3" cx="377.174421" cy="179.120946" r="10.42898"></circle>
        </g>
    </g>
</svg>
